<svg class="v-icon v-icon-visa v-icon-low v-icon-token" width="24" height="24" viewBox="0 0 24 24" xmlns="http://www.w3.org/2000/svg"><path class="v-icon-secondary" d="M16 8V10H13V16H11V10H8V8H16Z"/><path class="v-icon-primary" d="M12 0C18.6274 0 24 5.37258 24 12C24 18.6274 18.6274 24 12 24C5.37258 24 0 18.6274 0 12C0 5.37258 5.37258 0 12 0ZM12 2C6.47715 2 2 6.47715 2 12C2 17.5228 6.47715 22 12 22C17.5228 22 22 17.5228 22 12C22 6.47715 17.5228 2 12 2Z"/><defs><clipPath><rect width="24" height="24"/></clipPath></defs></svg>