<svg class="v-icon v-icon-generic v-icon-tiny v-icon-portfolio-update" width="16" height="16" viewBox="0 0 16 16" xmlns="http://www.w3.org/2000/svg"><path class="v-icon-primary" d="M8.5 0.260742C9.32843 0.260742 10 0.932315 10 1.76074V3.26074H11.5C12.3284 3.26074 13 3.93231 13 4.76074V6.86133C13.093 6.9369 13.1837 7.01793 13.2715 7.10449C14.1558 7.9765 14.5108 8.97493 14.5859 9.85254C14.9539 9.68086 15.4054 9.74784 15.709 10.0527C16.097 10.4427 16.097 11.0748 15.709 11.4648L14.293 12.8867C13.9045 13.2767 13.2751 13.2768 12.8867 12.8867L11.4482 11.4424C11.0598 11.0523 11.0598 10.4194 11.4482 10.0293C11.7546 9.72173 12.2113 9.65642 12.5811 9.83398C12.5087 9.41676 12.3074 8.95382 11.8779 8.53027C11.5451 8.20207 11.0931 8.01787 10.6172 7.96875C10.127 7.9182 9.7083 8.0204 9.48438 8.14746C9.00617 8.41899 8.39926 8.2498 8.12891 7.76953C7.85893 7.28949 8.0272 6.68079 8.50488 6.40918C9.15236 6.04154 10.0005 5.89691 10.8203 5.98145C10.8798 5.98758 10.9399 5.99522 11 6.00391V5.26074H2V6.26074H5.68457C6.23686 6.26074 6.68457 6.70846 6.68457 7.26074C6.68457 7.81303 6.23686 8.26074 5.68457 8.26074H2V12.2607H6.16992C6.14412 12.1211 6.12587 11.9834 6.11426 11.8486C5.74446 12.02 5.2914 11.953 4.98633 11.6484C4.5958 11.2583 4.5958 10.6255 4.98633 10.2354L6.40918 8.81445C6.7997 8.42434 7.43272 8.42434 7.82324 8.81445L9.26953 10.2588C9.66005 10.6489 9.66005 11.2818 9.26953 11.6719C8.96156 11.9794 8.50257 12.0438 8.13086 11.8662C8.20353 12.2835 8.406 12.7473 8.83789 13.1709C9.17242 13.4988 9.62628 13.6823 10.1045 13.7314C10.5975 13.7821 11.019 13.6799 11.2441 13.5527C11.7248 13.2815 12.3347 13.4507 12.6064 13.9307C12.8782 14.4108 12.709 15.0204 12.2285 15.292C11.5775 15.6597 10.7247 15.8043 9.90039 15.7197C9.06164 15.6336 8.15428 15.3005 7.43652 14.5967C7.32444 14.4867 7.22067 14.3742 7.125 14.2607H1.5C0.671573 14.2607 0 13.5892 0 12.7607V4.76074C0 3.93232 0.671572 3.26074 1.5 3.26074H3V1.76074C3 0.932315 3.67157 0.260742 4.5 0.260742H8.5ZM5 3.26074H8V2.26074H5V3.26074Z"/></svg>