<svg class="v-icon v-icon-visa v-icon-high v-icon-accessibility" width="48" height="48" viewBox="0 0 48 48" xmlns="http://www.w3.org/2000/svg"><path class="v-icon-secondary" d="M24 4C35.03 4 44 12.97 44 24C44 35.03 35.03 44 24 44C12.97 44 4 35.03 4 24C4 12.97 12.97 4 24 4ZM24 6C14.07 6 6 14.07 6 24C6 33.93 14.07 42 24 42C33.93 42 42 33.92 42 24C42 14.08 33.92 6 24 6Z"/><path class="v-icon-primary" d="M24 0C37.23 0 48 10.77 48 24C48 37.23 37.23 48 24 48C10.77 48 0 37.23 0 24C0 10.77 10.77 0 24 0ZM24 2C11.87 2 2 11.87 2 24C2 36.13 11.87 46 24 46C36.13 46 46 36.13 46 24C46 11.87 36.13 2 24 2ZM24.5 12C27.189 12 29.333 14.1972 29.333 16.8633C29.333 17.3148 29.2715 17.7528 29.1562 18.1689L31.6416 18.168L31.9238 18.1846L31.9814 18.1914C33.698 18.3929 35 19.8556 35 21.5996C35 23.475 33.4895 25.0312 31.583 25.0312H29.1982L28.4346 26.3682L31.0312 30.9102L31.1562 31.1621L31.1787 31.2158C31.8483 32.7816 31.2737 34.6491 29.7549 35.5352C28.1814 36.4531 26.1764 35.9687 25.1865 34.458L24.4971 33.4053L23.7734 34.5098L23.5928 34.751L23.5527 34.7988C22.5509 35.9766 20.8479 36.3551 19.4238 35.6357L19.3906 35.6182L19.125 35.4717L18.8672 35.2969L18.8154 35.2559C17.559 34.2743 17.1813 32.485 17.8936 31.0449L17.9102 31.0117L18.0225 30.8047L20.5586 26.3691L19.793 25.0312H17.3584L17.0762 25.0146L17.0186 25.0078C15.3021 24.8064 14 23.3436 14 21.5996C14 19.7241 15.5114 18.168 17.418 18.168L19.8438 18.1689C19.7285 17.7528 19.667 17.3148 19.667 16.8633C19.667 14.1972 21.811 12 24.5 12ZM28.2471 20.1689C27.9031 20.4755 27.5218 20.7413 27.1113 20.957C27.063 20.9824 27.014 21.0072 26.9648 21.0312C26.9248 21.0508 26.8843 21.0702 26.8438 21.0889C26.1295 21.4171 25.3358 21.5996 24.5 21.5996C23.6581 21.5996 22.8589 21.4139 22.1406 21.0811C22.1054 21.0647 22.07 21.0483 22.0352 21.0312C21.986 21.0072 21.937 20.9824 21.8887 20.957C21.4782 20.7413 21.0969 20.4755 20.7529 20.1689L17.417 20.168C16.6346 20.168 16 20.809 16 21.5996C16 22.3335 16.5467 22.9386 17.251 23.0215L17.417 23.0312H20.9521L22.8623 26.3682L19.7705 31.7773L19.6865 31.9316C19.3797 32.552 19.5643 33.3027 20.0469 33.6797L20.1729 33.7656L20.3252 33.8506C20.9079 34.1449 21.6135 33.9917 22.0293 33.5029L22.1348 33.3613L24.498 29.7568L26.8594 33.3623C27.2694 33.988 28.0983 34.1861 28.7471 33.8076C29.3763 33.4406 29.6211 32.6596 29.3398 32.002L29.2656 31.8525L26.1318 26.3682L28.0371 23.0312H31.583C32.3654 23.0312 33 22.3902 33 21.5996C33 20.8657 32.4534 20.2606 31.749 20.1777L31.583 20.168L28.2471 20.1689ZM24.5 14C22.9352 14 21.667 15.2821 21.667 16.8633C21.6671 17.8476 22.1585 18.7162 22.9072 19.2314C23.3611 19.5437 23.9095 19.7256 24.5 19.7256C25.0905 19.7256 25.6389 19.5437 26.0928 19.2314C26.8415 18.7162 27.3329 17.8476 27.333 16.8633C27.333 15.2821 26.0648 14 24.5 14Z"/><defs><clipPath><rect width="48" height="48"/></clipPath></defs></svg>