<svg class="v-icon v-icon-visa v-icon-low v-icon-refresh" width="24" height="24" viewBox="0 0 24 24" xmlns="http://www.w3.org/2000/svg"><path class="v-icon-primary" d="M9 10H7V5.75684C5.95301 6.59531 5.12771 7.68721 4.60938 8.93848C3.93548 10.5654 3.81674 12.3693 4.27246 14.0703C4.72825 15.7713 5.73278 17.2746 7.12988 18.3467C8.52704 19.4188 10.2389 20 12 20V22C9.79866 22 7.65855 21.2737 5.91211 19.9336C4.16574 18.5935 2.91055 16.7142 2.34082 14.5879C1.77115 12.4616 1.91836 10.2065 2.76074 8.17285C3.2538 6.98255 3.96985 5.90802 4.86035 5H2V3H9V10ZM12 2C14.2013 2 16.3414 2.72631 18.0879 4.06641C19.8343 5.40649 21.0894 7.28583 21.6592 9.41211C22.2288 11.5384 22.0816 13.7935 21.2393 15.8271C20.7462 17.0174 20.0301 18.092 19.1396 19H22V21H15V14H17V18.2422C18.0468 17.4038 18.8724 16.3126 19.3906 15.0615C20.0645 13.4346 20.1833 11.6307 19.7275 9.92969C19.2717 8.22866 18.2672 6.72539 16.8701 5.65332C15.473 4.58125 13.7611 4 12 4V2Z"/></svg>