<svg class="v-icon v-icon-generic v-icon-low v-icon-reward" width="24" height="24" viewBox="0 0 24 24" xmlns="http://www.w3.org/2000/svg"><path class="v-icon-primary" d="M12 0C16.4183 0 20 3.59989 20 8.04004C19.9998 11.0156 18.3911 13.6139 16 15.0039V22.8926C15.9999 23.8421 14.887 24.3497 14.1758 23.7246L12 21.8115L9.82422 23.7246C9.11301 24.3497 8.00014 23.8421 8 22.8926V15.0039C5.60891 13.6139 4.00016 11.0156 4 8.04004C4 3.59989 7.58172 0 12 0ZM14 16.8604C13.3562 17.0072 12.6867 17.084 12 17.084C11.4849 17.084 10.9795 17.0408 10.4873 16.957L10 16.8604V20.8994L11.3418 19.7197C11.7188 19.3883 12.2812 19.3883 12.6582 19.7197L14 20.8994V16.8604ZM12 2.00977C8.68629 2.00977 6 4.70992 6 8.04004C6.00023 11.37 8.68643 14.0693 12 14.0693C15.3136 14.0693 17.9998 11.37 18 8.04004C18 4.70992 15.3137 2.00977 12 2.00977ZM12 5.02441C13.6569 5.02441 15 6.37498 15 8.04004C14.9998 9.7049 13.6567 11.0547 12 11.0547C10.3433 11.0547 9.00023 9.7049 9 8.04004C9 6.37498 10.3431 5.02441 12 5.02441ZM12 7.03418C11.4477 7.03418 11 7.48502 11 8.04004C11.0002 8.59486 11.4479 9.04492 12 9.04492C12.5521 9.04492 12.9998 8.59486 13 8.04004C13 7.48502 12.5523 7.03418 12 7.03418Z"/></svg>